<svg xmlns="http://www.w3.org/2000/svg" version="1.1" xmlns:xlink="http://www.w3.org/1999/xlink" xmlns:svgjs="http://svgjs.dev/svgjs" width="1000" height="1000" viewBox="0 0 1000 1000"><rect width="1000" height="1000" fill="#fafafa"></rect><g transform="matrix(0.7,0,0,0.7,149.57575757575756,450.7202344238008)"><svg viewBox="0 0 396 56" data-background-color="#fafafa" preserveAspectRatio="xMidYMid meet" height="141" width="1000" xmlns="http://www.w3.org/2000/svg" xmlns:xlink="http://www.w3.org/1999/xlink"><g id="tight-bounds" transform="matrix(1,0,0,1,0.2400000000000091,-0.03984931846852646)"><svg viewBox="0 0 395.52 56.07969863693703" height="56.07969863693703" width="395.52"><g><svg viewBox="0 0 624.6520000000002 88.56769800000001" height="56.07969863693703" width="395.52"><g><svg viewBox="0 0 624.6520000000002 88.56769800000001" height="88.56769800000001" width="624.6520000000002"><g><svg viewBox="0 0 624.6520000000002 88.56769800000001" height="88.56769800000001" width="624.6520000000002"><g><svg viewBox="0 0 624.6520000000002 58.248" height="58.248" width="624.6520000000002"><g><svg><g></g><g></g></svg></g><g><svg><g><svg></svg></g><g></g></svg></g><g id="text-0"><svg viewBox="0 0 624.6520000000002 58.248" height="58.248" width="624.6520000000002"><g transform="matrix(1,0,0,1,0,11.373999999999999)"><svg width="271.20000000000005" viewBox="3.0999999046325684 -35 271.17999267578125 35.5" height="35.5" data-palette-color="#130912"><path d="M12.55 0L4.4 0Q3.9 0 3.5-0.35 3.1-0.7 3.1-1.3L3.1-1.3 3.1-33.7Q3.1-34.25 3.5-34.63 3.9-35 4.4-35L4.4-35 12.55-35Q13.1-35 13.48-34.63 13.85-34.25 13.85-33.7L13.85-33.7 13.85-22.4 24.05-22.4 24.05-33.7Q24.05-34.25 24.45-34.63 24.85-35 25.35-35L25.35-35 33.5-35Q34.05-35 34.43-34.63 34.8-34.25 34.8-33.7L34.8-33.7 34.8-1.3Q34.8-0.75 34.43-0.38 34.05 0 33.5 0L33.5 0 25.35 0Q24.85 0 24.45-0.38 24.05-0.75 24.05-1.3L24.05-1.3 24.05-12.9 13.85-12.9 13.85-1.3Q13.85-0.75 13.48-0.38 13.1 0 12.55 0L12.55 0ZM56.4 0.5L56.4 0.5Q51.75 0.5 48.22-0.95 44.7-2.4 42.72-5.48 40.75-8.55 40.75-13.25L40.75-13.25 40.75-33.7Q40.75-34.25 41.15-34.63 41.55-35 42.05-35L42.05-35 50.2-35Q50.75-35 51.12-34.63 51.5-34.25 51.5-33.7L51.5-33.7 51.5-13.4Q51.5-10.85 52.75-9.55 54-8.25 56.35-8.25L56.35-8.25Q58.7-8.25 59.92-9.55 61.15-10.85 61.15-13.4L61.15-13.4 61.15-33.7Q61.15-34.25 61.55-34.63 61.95-35 62.5-35L62.5-35 70.6-35Q71.15-35 71.52-34.63 71.9-34.25 71.9-33.7L71.9-33.7 71.9-13.25Q71.9-8.55 69.95-5.48 68-2.4 64.5-0.95 61 0.5 56.4 0.5ZM86.7 0L79.2 0Q78.65 0 78.25-0.38 77.84-0.75 77.84-1.3L77.84-1.3 77.84-33.7Q77.84-34.25 78.25-34.63 78.65-35 79.2-35L79.2-35 85.84-35Q86.75-35 87.2-34.5 87.65-34 87.8-33.8L87.8-33.8 95.8-19.9 103.8-33.8Q103.95-34 104.4-34.5 104.84-35 105.75-35L105.75-35 112.4-35Q112.95-35 113.32-34.63 113.7-34.25 113.7-33.7L113.7-33.7 113.7-1.3Q113.7-0.75 113.32-0.38 112.95 0 112.4 0L112.4 0 104.9 0Q104.34 0 103.97-0.38 103.59-0.75 103.59-1.3L103.59-1.3 103.59-17.5 99.09-9.6Q98.84-9.2 98.45-8.8 98.05-8.4 97.3-8.4L97.3-8.4 94.25-8.4Q93.55-8.4 93.15-8.8 92.75-9.2 92.5-9.6L92.5-9.6 88-17.5 88-1.3Q88-0.75 87.62-0.38 87.25 0 86.7 0L86.7 0ZM125.84 0L118.14 0Q117.69 0 117.39-0.33 117.09-0.65 117.09-1.1L117.09-1.1Q117.09-1.3 117.14-1.45L117.14-1.45 128.54-33.45Q128.74-34 129.24-34.5 129.74-35 130.64-35L130.64-35 139.79-35Q140.74-35 141.24-34.5 141.74-34 141.89-33.45L141.89-33.45 153.34-1.45Q153.39-1.3 153.39-1.1L153.39-1.1Q153.39-0.65 153.07-0.33 152.74 0 152.29 0L152.29 0 144.59 0Q143.74 0 143.34-0.4 142.94-0.8 142.79-1.15L142.79-1.15 141.24-5.35 129.19-5.35 127.64-1.15Q127.49-0.8 127.12-0.4 126.74 0 125.84 0L125.84 0ZM135.19-25.05L131.49-13.8 138.94-13.8 135.19-25.05ZM165.54 0L157.99 0Q157.49 0 157.09-0.38 156.69-0.75 156.69-1.3L156.69-1.3 156.69-33.7Q156.69-34.25 157.09-34.63 157.49-35 157.99-35L157.99-35 164.64-35Q165.54-35 165.94-34.6 166.34-34.2 166.49-33.95L166.49-33.95 176.79-17.4 176.79-33.7Q176.79-34.25 177.19-34.63 177.59-35 178.14-35L178.14-35 185.64-35Q186.19-35 186.56-34.63 186.94-34.25 186.94-33.7L186.94-33.7 186.94-1.3Q186.94-0.75 186.56-0.38 186.19 0 185.64 0L185.64 0 179.04 0Q178.14 0 177.72-0.43 177.29-0.85 177.14-1.05L177.14-1.05 166.84-16.7 166.84-1.3Q166.84-0.75 166.47-0.38 166.09 0 165.54 0L165.54 0ZM202.99 0L194.49 0Q193.99 0 193.59-0.38 193.19-0.75 193.19-1.3L193.19-1.3 193.19-33.7Q193.19-34.25 193.59-34.63 193.99-35 194.49-35L194.49-35 202.99-35Q203.54-35 203.91-34.63 204.29-34.25 204.29-33.7L204.29-33.7 204.29-1.3Q204.29-0.75 203.91-0.38 203.54 0 202.99 0L202.99 0ZM227.84 0L219.54 0Q218.99 0 218.61-0.38 218.24-0.75 218.24-1.3L218.24-1.3 218.24-25.7 209.64-25.7Q209.09-25.7 208.71-26.08 208.34-26.45 208.34-27L208.34-27 208.34-33.7Q208.34-34.25 208.71-34.63 209.09-35 209.64-35L209.64-35 237.74-35Q238.29-35 238.66-34.63 239.04-34.25 239.04-33.7L239.04-33.7 239.04-27Q239.04-26.45 238.66-26.08 238.29-25.7 237.74-25.7L237.74-25.7 229.14-25.7 229.14-1.3Q229.14-0.75 228.76-0.38 228.39 0 227.84 0L227.84 0ZM261.43 0L253.28 0Q252.73 0 252.36-0.38 251.98-0.75 251.98-1.3L251.98-1.3 251.98-11.6 240.58-33.45Q240.53-33.55 240.48-33.68 240.43-33.8 240.43-33.9L240.43-33.9Q240.43-34.35 240.76-34.68 241.08-35 241.53-35L241.53-35 249.33-35Q250.23-35 250.68-34.55 251.13-34.1 251.28-33.85L251.28-33.85 257.38-22.35 263.48-33.85Q263.58-34.1 264.06-34.55 264.53-35 265.38-35L265.38-35 273.23-35Q273.63-35 273.96-34.68 274.28-34.35 274.28-33.9L274.28-33.9Q274.28-33.8 274.26-33.68 274.23-33.55 274.18-33.45L274.18-33.45 262.73-11.6 262.73-1.3Q262.73-0.75 262.36-0.38 261.98 0 261.43 0L261.43 0Z" opacity="1" transform="matrix(1,0,0,1,0,0)" fill="#130912" class="undefined-o-0"></path></svg></g><g><svg xmlns="http://www.w3.org/2000/svg" xmlns:xlink="http://www.w3.org/1999/xlink" version="1.1" x="284.95200000000006" y="0" viewBox="0 0 100 100" style="enable-background:new 0 0 100 100;" xml:space="preserve" height="58.248" width="58.248" class="icon-a-0" data-fill-palette-color="accent" id="a-0"><path d="M50 0C22.388 0 0 22.388 0 50s22.388 50 50 50 50-22.388 50-50S77.612 0 50 0zM50 12.5c8.094 0 15.539 2.637 21.668 7.007L19.494 71.655C15.125 65.527 12.5 58.081 12.5 50 12.5 29.321 29.321 12.5 50 12.5zM50 87.5c-8.094 0-15.539-2.637-21.668-7.007l52.174-52.148C84.875 34.473 87.5 41.919 87.5 50 87.5 70.679 70.679 87.5 50 87.5z" fill="#e77917" data-fill-palette-color="accent"></path></svg></g><g transform="matrix(1,0,0,1,356.95200000000006,10.873999999999999)"><svg width="267.70000000000005" viewBox="2.049999952316284 -35.5 267.6800231933594 36" height="36" data-palette-color="#130912"><path d="M18.2 0.5L18.2 0.5Q13.45 0.5 9.9-0.98 6.35-2.45 4.33-5.45 2.3-8.45 2.1-13.05L2.1-13.05Q2.05-15.1 2.05-17.45 2.05-19.8 2.1-21.95L2.1-21.95Q2.3-26.45 4.38-29.48 6.45-32.5 10.03-34 13.6-35.5 18.2-35.5L18.2-35.5Q21.5-35.5 24.38-34.73 27.25-33.95 29.5-32.38 31.75-30.8 33.05-28.5 34.35-26.2 34.4-23.1L34.4-23.1Q34.4-22.65 34.08-22.33 33.75-22 33.3-22L33.3-22 24.85-22Q24.1-22 23.75-22.3 23.4-22.6 23.15-23.35L23.15-23.35Q22.5-25.5 21.25-26.25 20-27 18.2-27L18.2-27Q16-27 14.7-25.83 13.4-24.65 13.3-21.7L13.3-21.7Q13.15-17.6 13.3-13.3L13.3-13.3Q13.4-10.35 14.7-9.18 16-8 18.2-8L18.2-8Q20-8 21.28-8.8 22.55-9.6 23.15-11.65L23.15-11.65Q23.35-12.45 23.73-12.73 24.1-13 24.85-13L24.85-13 33.3-13Q33.75-13 34.08-12.7 34.4-12.4 34.4-11.95L34.4-11.95Q34.35-8.85 33.05-6.53 31.75-4.2 29.5-2.63 27.25-1.05 24.38-0.28 21.5 0.5 18.2 0.5ZM65.2 0L40.3 0Q39.8 0 39.4-0.38 39-0.75 39-1.3L39-1.3 39-33.7Q39-34.25 39.4-34.63 39.8-35 40.3-35L40.3-35 64.8-35Q65.35-35 65.75-34.63 66.15-34.25 66.15-33.7L66.15-33.7 66.15-27.8Q66.15-27.3 65.75-26.9 65.35-26.5 64.8-26.5L64.8-26.5 49.35-26.5 49.35-21.55 63.7-21.55Q64.25-21.55 64.65-21.18 65.05-20.8 65.05-20.25L65.05-20.25 65.05-14.85Q65.05-14.3 64.65-13.93 64.25-13.55 63.7-13.55L63.7-13.55 49.35-13.55 49.35-8.5 65.2-8.5Q65.75-8.5 66.15-8.1 66.55-7.7 66.55-7.15L66.55-7.15 66.55-1.3Q66.55-0.75 66.15-0.38 65.75 0 65.2 0L65.2 0ZM81.09 0L72.95 0Q72.45 0 72.05-0.38 71.64-0.75 71.64-1.3L71.64-1.3 71.64-33.7Q71.64-34.25 72.05-34.63 72.45-35 72.95-35L72.95-35 87.2-35Q94-35 97.87-31.9 101.75-28.8 101.75-23.25L101.75-23.25Q101.75-19.75 100.15-17.3 98.55-14.85 95.95-13.45L95.95-13.45 102.44-1.65Q102.59-1.35 102.59-1.1L102.59-1.1Q102.59-0.65 102.3-0.33 102 0 101.55 0L101.55 0 93.09 0Q92.15 0 91.65-0.48 91.15-0.95 91-1.35L91-1.35 86-11.65 82.4-11.65 82.4-1.3Q82.4-0.75 82.02-0.38 81.65 0 81.09 0L81.09 0ZM82.4-26.9L82.4-19.9 87.15-19.9Q88.9-19.9 89.75-20.88 90.59-21.85 90.59-23.3L90.59-23.3Q90.59-24.8 89.77-25.85 88.95-26.9 87.15-26.9L87.15-26.9 82.4-26.9ZM124.34 0L116.04 0Q115.49 0 115.12-0.38 114.74-0.75 114.74-1.3L114.74-1.3 114.74-25.7 106.14-25.7Q105.59-25.7 105.22-26.08 104.84-26.45 104.84-27L104.84-27 104.84-33.7Q104.84-34.25 105.22-34.63 105.59-35 106.14-35L106.14-35 134.24-35Q134.79-35 135.17-34.63 135.54-34.25 135.54-33.7L135.54-33.7 135.54-27Q135.54-26.45 135.17-26.08 134.79-25.7 134.24-25.7L134.24-25.7 125.64-25.7 125.64-1.3Q125.64-0.75 125.27-0.38 124.89 0 124.34 0L124.34 0ZM149.39 0L140.89 0Q140.39 0 139.99-0.38 139.59-0.75 139.59-1.3L139.59-1.3 139.59-33.7Q139.59-34.25 139.99-34.63 140.39-35 140.89-35L140.89-35 149.39-35Q149.94-35 150.31-34.63 150.69-34.25 150.69-33.7L150.69-33.7 150.69-1.3Q150.69-0.75 150.31-0.38 149.94 0 149.39 0L149.39 0ZM166.14 0L158.19 0Q157.69 0 157.29-0.38 156.89-0.75 156.89-1.3L156.89-1.3 156.89-33.7Q156.89-34.25 157.29-34.63 157.69-35 158.19-35L158.19-35 182.29-35Q182.84-35 183.24-34.63 183.64-34.25 183.64-33.7L183.64-33.7 183.64-27.35Q183.64-26.85 183.24-26.45 182.84-26.05 182.29-26.05L182.29-26.05 167.44-26.05 167.44-20.55 181.29-20.55Q181.84-20.55 182.24-20.18 182.64-19.8 182.64-19.25L182.64-19.25 182.64-12.95Q182.64-12.4 182.24-12.03 181.84-11.65 181.29-11.65L181.29-11.65 167.44-11.65 167.44-1.3Q167.44-0.75 167.06-0.38 166.69 0 166.14 0L166.14 0ZM198.29 0L189.79 0Q189.29 0 188.89-0.38 188.49-0.75 188.49-1.3L188.49-1.3 188.49-33.7Q188.49-34.25 188.89-34.63 189.29-35 189.79-35L189.79-35 198.29-35Q198.84-35 199.21-34.63 199.59-34.25 199.59-33.7L199.59-33.7 199.59-1.3Q199.59-0.75 199.21-0.38 198.84 0 198.29 0L198.29 0ZM231.98 0L207.08 0Q206.58 0 206.18-0.38 205.78-0.75 205.78-1.3L205.78-1.3 205.78-33.7Q205.78-34.25 206.18-34.63 206.58-35 207.08-35L207.08-35 231.58-35Q232.13-35 232.53-34.63 232.93-34.25 232.93-33.7L232.93-33.7 232.93-27.8Q232.93-27.3 232.53-26.9 232.13-26.5 231.58-26.5L231.58-26.5 216.13-26.5 216.13-21.55 230.48-21.55Q231.03-21.55 231.43-21.18 231.83-20.8 231.83-20.25L231.83-20.25 231.83-14.85Q231.83-14.3 231.43-13.93 231.03-13.55 230.48-13.55L230.48-13.55 216.13-13.55 216.13-8.5 231.98-8.5Q232.53-8.5 232.93-8.1 233.33-7.7 233.33-7.15L233.33-7.15 233.33-1.3Q233.33-0.75 232.93-0.38 232.53 0 231.98 0L231.98 0ZM253.68 0L239.73 0Q239.23 0 238.83-0.38 238.43-0.75 238.43-1.3L238.43-1.3 238.43-33.7Q238.43-34.25 238.83-34.63 239.23-35 239.73-35L239.73-35 253.43-35Q258.28-35 261.83-33.43 265.38-31.85 267.43-28.8 269.48-25.75 269.63-21.3L269.63-21.3Q269.73-19.15 269.73-17.5 269.73-15.85 269.63-13.75L269.63-13.75Q269.43-9.05 267.51-6 265.58-2.95 262.08-1.48 258.58 0 253.68 0L253.68 0ZM249.18-26.5L249.18-8.5 253.43-8.5Q255.08-8.5 256.23-9.05 257.38-9.6 258.03-10.78 258.68-11.95 258.73-13.8L258.73-13.8Q258.78-15.25 258.81-16.4 258.83-17.55 258.81-18.7 258.78-19.85 258.73-21.25L258.73-21.25Q258.63-24 257.16-25.25 255.68-26.5 253.18-26.5L253.18-26.5 249.18-26.5Z" opacity="1" transform="matrix(1,0,0,1,0,0)" fill="#130912" class="undefined-o-1"></path></svg></g></svg></g></svg></g><g transform="matrix(1,0,0,1,213.44750836820091,66.628698)"><svg viewBox="0 0 197.75698326359833 21.939" height="21.939" width="197.75698326359833"><g transform="matrix(1,0,0,1,0,0)"><svg width="197.75698326359833" viewBox="2 -35.349998474121094 323.1099853515625 35.849998474121094" height="21.939" data-palette-color="#130912"><path d="M7.45 0L2.45 0Q2.05 0 2.05-0.35L2.05-0.35 2-34.4Q2-34.8 2.4-34.8L2.4-34.8 6.9-34.8 15.35-15.1 15.1-34.4Q15.1-34.8 15.55-34.8L15.55-34.8 20.5-34.8Q20.8-34.8 20.8-34.4L20.8-34.4 20.85-0.3Q20.85 0 20.6 0L20.6 0 16.2 0 7.55-18.4 7.9-0.4Q7.9 0 7.45 0L7.45 0ZM34.45 0.5L34.45 0.5Q31.75 0.5 29.52-0.88 27.3-2.25 25.95-4.53 24.6-6.8 24.6-9.55L24.6-9.55 24.65-25.4Q24.65-28.15 25.97-30.4 27.3-32.65 29.55-34 31.8-35.35 34.45-35.35L34.45-35.35Q37.15-35.35 39.35-34 41.55-32.65 42.87-30.4 44.2-28.15 44.2-25.4L44.2-25.4 44.25-9.55Q44.25-6.8 42.92-4.53 41.6-2.25 39.37-0.88 37.15 0.5 34.45 0.5ZM34.45-5.55L34.45-5.55Q35.95-5.55 37.07-6.78 38.2-8 38.2-9.55L38.2-9.55 38.15-25.4Q38.15-27.05 37.1-28.2 36.05-29.35 34.45-29.35L34.45-29.35Q32.9-29.35 31.8-28.23 30.7-27.1 30.7-25.4L30.7-25.4 30.7-9.55Q30.7-7.9 31.8-6.73 32.9-5.55 34.45-5.55ZM54.89-0.25L54.89-0.25 61.09-34.6Q61.14-34.8 61.34-34.8L61.34-34.8 68.59-34.8Q68.79-34.8 68.84-34.6L68.84-34.6 74.79-0.25Q74.84 0 74.59 0L74.59 0 69.04 0Q68.84 0 68.79-0.25L68.79-0.25 68.24-3.9 61.44-3.9 60.89-0.25Q60.84 0 60.64 0L60.64 0 55.09 0Q54.89 0 54.89-0.25ZM64.69-23.3L62.44-9.25 67.24-9.25 65.19-23.3 64.89-25.15 64.69-23.3ZM83.99 0L78.34 0Q78.09 0 78.09-0.25L78.09-0.25 78.14-34.6Q78.14-34.8 78.34-34.8L78.34-34.8 83.94-34.8Q84.14-34.8 84.14-34.6L84.14-34.6 84.19-0.25Q84.19 0 83.99 0L83.99 0ZM105.19 0.5L105.19 0.5Q102.44 0.5 100.21-0.88 97.99-2.25 96.69-4.55 95.39-6.85 95.39-9.7L95.39-9.7 95.44-25.3Q95.44-28.05 96.71-30.33 97.99-32.6 100.21-33.98 102.44-35.35 105.19-35.35L105.19-35.35Q107.94-35.35 110.14-34 112.34-32.65 113.64-30.38 114.94-28.1 114.94-25.3L114.94-25.3 114.94-23Q114.94-22.8 114.74-22.8L114.74-22.8 109.14-22.8Q108.94-22.8 108.94-23L108.94-23 108.94-25.3Q108.94-26.95 107.86-28.15 106.79-29.35 105.19-29.35L105.19-29.35Q103.39-29.35 102.44-28.13 101.49-26.9 101.49-25.3L101.49-25.3 101.49-9.7Q101.49-7.85 102.56-6.7 103.64-5.55 105.19-5.55L105.19-5.55Q106.79-5.55 107.86-6.83 108.94-8.1 108.94-9.7L108.94-9.7 108.94-12Q108.94-12.2 109.14-12.2L109.14-12.2 114.79-12.2Q114.99-12.2 114.99-12L114.99-12 114.99-9.7Q114.99-6.85 113.66-4.55 112.34-2.25 110.14-0.88 107.94 0.5 105.19 0.5ZM127.88 0.5L127.88 0.5Q125.18 0.5 122.96-0.88 120.73-2.25 119.38-4.53 118.03-6.8 118.03-9.55L118.03-9.55 118.08-25.4Q118.08-28.15 119.41-30.4 120.73-32.65 122.98-34 125.23-35.35 127.88-35.35L127.88-35.35Q130.58-35.35 132.78-34 134.98-32.65 136.31-30.4 137.63-28.15 137.63-25.4L137.63-25.4 137.68-9.55Q137.68-6.8 136.36-4.53 135.03-2.25 132.81-0.88 130.58 0.5 127.88 0.5ZM127.88-5.55L127.88-5.55Q129.38-5.55 130.51-6.78 131.63-8 131.63-9.55L131.63-9.55 131.58-25.4Q131.58-27.05 130.53-28.2 129.48-29.35 127.88-29.35L127.88-29.35Q126.33-29.35 125.23-28.23 124.13-27.1 124.13-25.4L124.13-25.4 124.13-9.55Q124.13-7.9 125.23-6.73 126.33-5.55 127.88-5.55ZM146.93 0L141.93 0Q141.53 0 141.53-0.35L141.53-0.35 141.48-34.4Q141.48-34.8 141.88-34.8L141.88-34.8 146.38-34.8 154.83-15.1 154.58-34.4Q154.58-34.8 155.03-34.8L155.03-34.8 159.98-34.8Q160.28-34.8 160.28-34.4L160.28-34.4 160.33-0.3Q160.33 0 160.08 0L160.08 0 155.68 0 147.03-18.4 147.38-0.4Q147.38 0 146.93 0L146.93 0ZM175.33 0L169.68 0Q169.48 0 169.48-0.25L169.48-0.25 169.48-28.75 162.98-28.75Q162.73-28.75 162.73-29L162.73-29 162.78-34.6Q162.78-34.8 162.98-34.8L162.98-34.8 181.98-34.8Q182.23-34.8 182.23-34.6L182.23-34.6 182.23-29Q182.23-28.75 182.03-28.75L182.03-28.75 175.48-28.75 175.53-0.25Q175.53 0 175.33 0L175.33 0ZM201.03 0L184.88 0Q184.68 0 184.68-0.25L184.68-0.25 184.73-34.6Q184.73-34.8 184.93-34.8L184.93-34.8 200.98-34.8Q201.18-34.8 201.18-34.55L201.18-34.55 201.18-28.95Q201.18-28.75 200.98-28.75L200.98-28.75 190.73-28.75 190.73-20.95 200.98-20.95Q201.18-20.95 201.18-20.75L201.18-20.75 201.23-15.1Q201.23-14.9 201.03-14.9L201.03-14.9 190.73-14.9 190.73-6.15 201.03-6.15Q201.23-6.15 201.23-5.9L201.23-5.9 201.23-0.2Q201.23 0 201.03 0L201.03 0ZM211.12 0L206.12 0Q205.72 0 205.72-0.35L205.72-0.35 205.67-34.4Q205.67-34.8 206.07-34.8L206.07-34.8 210.57-34.8 219.02-15.1 218.77-34.4Q218.77-34.8 219.22-34.8L219.22-34.8 224.17-34.8Q224.47-34.8 224.47-34.4L224.47-34.4 224.52-0.3Q224.52 0 224.27 0L224.27 0 219.87 0 211.22-18.4 211.57-0.4Q211.57 0 211.12 0L211.12 0ZM239.52 0L233.87 0Q233.67 0 233.67-0.25L233.67-0.25 233.67-28.75 227.17-28.75Q226.92-28.75 226.92-29L226.92-29 226.97-34.6Q226.97-34.8 227.17-34.8L227.17-34.8 246.17-34.8Q246.42-34.8 246.42-34.6L246.42-34.6 246.42-29Q246.42-28.75 246.22-28.75L246.22-28.75 239.67-28.75 239.72-0.25Q239.72 0 239.52 0L239.52 0ZM264.76 0.5L264.76 0.5Q262.06 0.5 259.84-0.88 257.62-2.25 256.29-4.53 254.97-6.8 254.97-9.55L254.97-9.55 254.97-11.85Q254.97-12.1 255.22-12.1L255.22-12.1 260.81-12.1Q261.01-12.1 261.01-11.85L261.01-11.85 261.01-9.55Q261.01-7.9 262.12-6.73 263.22-5.55 264.76-5.55L264.76-5.55Q266.31-5.55 267.42-6.75 268.51-7.95 268.51-9.55L268.51-9.55Q268.51-11.4 266.12-12.75L266.12-12.75Q265.31-13.2 263.62-14.15 261.92-15.1 260.42-15.95L260.42-15.95Q257.67-17.55 256.34-19.98 255.02-22.4 255.02-25.45L255.02-25.45Q255.02-28.25 256.37-30.48 257.72-32.7 259.94-34 262.17-35.3 264.76-35.3L264.76-35.3Q267.42-35.3 269.64-33.98 271.87-32.65 273.19-30.43 274.51-28.2 274.51-25.45L274.51-25.45 274.51-21.35Q274.51-21.15 274.31-21.15L274.31-21.15 268.72-21.15Q268.51-21.15 268.51-21.35L268.51-21.35 268.47-25.45Q268.47-27.2 267.37-28.3 266.26-29.4 264.76-29.4L264.76-29.4Q263.22-29.4 262.12-28.23 261.01-27.05 261.01-25.45L261.01-25.45Q261.01-23.8 261.72-22.7 262.42-21.6 264.26-20.6L264.26-20.6Q264.51-20.45 265.24-20.08 265.97-19.7 266.81-19.23 267.67-18.75 268.34-18.4 269.01-18.05 269.17-17.95L269.17-17.95Q271.67-16.55 273.12-14.53 274.56-12.5 274.56-9.55L274.56-9.55Q274.56-6.7 273.24-4.42 271.92-2.15 269.69-0.83 267.47 0.5 264.76 0.5ZM283.96 0L278.31 0Q278.06 0 278.06-0.25L278.06-0.25 278.11-34.6Q278.11-34.8 278.31-34.8L278.31-34.8 283.91-34.8Q284.11-34.8 284.11-34.6L284.11-34.6 284.16-0.25Q284.16 0 283.96 0L283.96 0ZM299.21 0L293.56 0Q293.36 0 293.36-0.25L293.36-0.25 293.36-28.75 286.86-28.75Q286.61-28.75 286.61-29L286.61-29 286.66-34.6Q286.66-34.8 286.86-34.8L286.86-34.8 305.86-34.8Q306.11-34.8 306.11-34.6L306.11-34.6 306.11-29Q306.11-28.75 305.91-28.75L305.91-28.75 299.36-28.75 299.41-0.25Q299.41 0 299.21 0L299.21 0ZM324.91 0L308.76 0Q308.56 0 308.56-0.25L308.56-0.25 308.61-34.6Q308.61-34.8 308.81-34.8L308.81-34.8 324.86-34.8Q325.06-34.8 325.06-34.55L325.06-34.55 325.06-28.95Q325.06-28.75 324.86-28.75L324.86-28.75 314.61-28.75 314.61-20.95 324.86-20.95Q325.06-20.95 325.06-20.75L325.06-20.75 325.11-15.1Q325.11-14.9 324.91-14.9L324.91-14.9 314.61-14.9 314.61-6.15 324.91-6.15Q325.11-6.15 325.11-5.9L325.11-5.9 325.11-0.2Q325.11 0 324.91 0L324.91 0Z" opacity="1" transform="matrix(1,0,0,1,0,0)" fill="#130912" class="undefined-text-1" data-fill-palette-color="secondary" id="text-1"></path></svg></g></svg></g></svg></g></svg></g></svg></g><defs></defs></svg><rect width="395.52" height="56.07969863693703" fill="none" stroke="none" visibility="hidden"></rect></g></svg></g></svg>